<?xml version="1.0" encoding="UTF-8" standalone="no"?>
<svg
   xmlns:dc="http://purl.org/dc/elements/1.1/"
   xmlns:cc="http://creativecommons.org/ns#"
   xmlns:rdf="http://www.w3.org/1999/02/22-rdf-syntax-ns#"
   xmlns:svg="http://www.w3.org/2000/svg"
   xmlns="http://www.w3.org/2000/svg"
   xmlns:sodipodi="http://sodipodi.sourceforge.net/DTD/sodipodi-0.dtd"
   xmlns:inkscape="http://www.inkscape.org/namespaces/inkscape"
   width="1050"
   height="600"
   viewBox="0 0 277.8125 158.75"
   version="1.1"
   id="svg1241"
   inkscape:version="1.0.2 (e86c8708, 2021-01-15)"
   sodipodi:docname="UCloud_logo.svg">
  <defs
     id="defs1235" />
  <sodipodi:namedview
     id="base"
     pagecolor="#ffffff"
     bordercolor="#666666"
     borderopacity="1.0"
     inkscape:pageopacity="0.0"
     inkscape:pageshadow="2"
     inkscape:zoom="0.4824433"
     inkscape:cx="493.98692"
     inkscape:cy="410.32673"
     inkscape:document-units="mm"
     inkscape:current-layer="layer1"
     inkscape:document-rotation="0"
     showgrid="false"
     units="px"
     inkscape:window-width="1252"
     inkscape:window-height="829"
     inkscape:window-x="0"
     inkscape:window-y="23"
     inkscape:window-maximized="0" />
  <metadata
     id="metadata1238">
    <rdf:RDF>
      <cc:Work
         rdf:about="">
        <dc:format>image/svg+xml</dc:format>
        <dc:type
           rdf:resource="http://purl.org/dc/dcmitype/StillImage" />
        <dc:title />
      </cc:Work>
    </rdf:RDF>
  </metadata>
  <g
     inkscape:label="Layer 1"
     inkscape:groupmode="layer"
     id="layer1">
    <path
       id="path861"
       style="fill:#ffffff;fill-opacity:1;stroke:#000000;stroke-width:0.190929;stroke-linejoin:round;stroke-opacity:0"
       d="m 129.34169,19.939214 v 4.576959 h 4.51815 v -4.576959 z m -9.4743,0.603042 v 3.615822 h 3.61826 v -3.615822 z m -9.9358,0.478541 v 2.475029 h 2.47746 v -2.475029 z m 27.73387,7.334247 v 6.858545 h 6.73891 v -6.858545 z m -9.53716,1.48956 v 5.71694 h 5.71938 v -5.71694 z m -8.85178,0.416087 v 4.576959 h 4.51774 v -4.576959 z m 58.71778,0.304158 v 71.894271 h -0.007 v 1.87564 h -0.004 a 15.177946,13.03601 0 0 1 -15.12063,11.89702 15.177946,13.03601 0 0 1 -15.0854,-11.60097 V 101.76078 70.762685 59.507243 h -0.009 V 49.113579 38.775068 h -10.49821 v 10.338511 h -10.07369 v 10.393664 h -10.06112 v 45.935867 h 0.0779 a 45.546285,34.991116 0 0 0 45.49748,33.36768 45.546285,34.991116 0 0 0 45.54492,-34.72057 h 0.1606 V 30.564849 Z m -68.57167,0.330517 v 3.615822 h 3.61826 v -3.615822 z m 17.88972,8.118971 v 6.858545 h 6.73891 v -6.858545 z m -9.26138,1.091317 v 5.716942 h 5.71937 v -5.716942 z m -9.04767,0.753905 v 4.57696 h 4.51816 v -4.57696 z m 8.38501,8.386227 v 6.85895 h 6.7385 v -6.85895 z" />
  </g>
</svg>
