<?xml version="1.0" encoding="UTF-8" standalone="no"?>
<svg
   xmlns:dc="http://purl.org/dc/elements/1.1/"
   xmlns:cc="http://creativecommons.org/ns#"
   xmlns:rdf="http://www.w3.org/1999/02/22-rdf-syntax-ns#"
   xmlns:svg="http://www.w3.org/2000/svg"
   xmlns="http://www.w3.org/2000/svg"
   xmlns:sodipodi="http://sodipodi.sourceforge.net/DTD/sodipodi-0.dtd"
   xmlns:inkscape="http://www.inkscape.org/namespaces/inkscape"
   width="500mm"
   height="400mm"
   viewBox="0 0 500 400"
   version="1.1"
   id="svg8"
   inkscape:version="1.0.1 (c497b03c, 2020-09-10)"
   sodipodi:docname="feature2.svg">
  <defs
     id="defs2" />
  <sodipodi:namedview
     id="base"
     pagecolor="#ffffff"
     bordercolor="#666666"
     borderopacity="1.0"
     inkscape:pageopacity="0.0"
     inkscape:pageshadow="2"
     inkscape:zoom="0.4025408"
     inkscape:cx="841.59366"
     inkscape:cy="799.694"
     inkscape:document-units="mm"
     inkscape:current-layer="layer1"
     inkscape:document-rotation="0"
     showgrid="false"
     inkscape:window-width="1440"
     inkscape:window-height="855"
     inkscape:window-x="0"
     inkscape:window-y="23"
     inkscape:window-maximized="0" />
  <metadata
     id="metadata5">
    <rdf:RDF>
      <cc:Work
         rdf:about="">
        <dc:format>image/svg+xml</dc:format>
        <dc:type
           rdf:resource="http://purl.org/dc/dcmitype/StillImage" />
        <dc:title />
      </cc:Work>
    </rdf:RDF>
  </metadata>
  <g
     inkscape:groupmode="layer"
     id="layer2"
     inkscape:label="Layer 2" />
  <g
     inkscape:label="Layer 1"
     inkscape:groupmode="layer"
     id="layer1">
    <g
       id="g157"
       transform="matrix(0.77113986,0,0,0.77113986,55.185694,46)">
      <g
         id="g1479"
         transform="matrix(0.90000109,0,0,0.91448982,24.010888,-7.1229996)">
        <path
           d="m 228.29874,15.276665 c 0,-3.607523 2.98537,-6.5426815 7.09709,-7.2928127 0.67166,-0.127498 1.45246,-0.1948103 2.17853,-0.1948103 h 27.12487 c 5.15796,0 9.19814,3.288777 9.19814,7.487623 0,2.942567 -1.99092,5.440268 -4.96012,6.660273 -0.35315,0.14975 -0.76894,0.287141 -1.14912,0.398149 -0.37128,0.108541 -0.76728,0.236308 -1.16064,0.305008 -0.17904,0.03592 -0.35974,0.06867 -0.54274,0.09782 -0.32972,0.970231 -0.85697,3.344566 -1.03206,8.85215 -0.13386,4.203522 0.0135,8.077853 0.0151,8.121269 l 0.003,0.06042 -8.4e-4,0.06075 c -0.002,0.141233 -0.11338,11.515277 5.14214,19.139464 16.3859,23.769433 24.12597,36.304131 27.74739,43.064432 3.09286,5.77742 3.12419,7.24417 3.13408,8.06849 l 0.002,0.18438 c 0.004,0.30472 0.004,0.60643 6.6e-4,0.90758 -6.6e-4,0.0611 -8.4e-4,0.12942 -0.002,0.19042 -0.0409,2.71478 -0.38842,5.6057 -3.38565,7.80718 -3.21191,2.35923 -8.95382,3.41271 -18.5984,3.41271 H 223.1276 c -0.35281,0 -0.7409,-0.002 -1.08283,-0.004 -9.01844,-0.0742 -14.46194,-1.13537 -17.55612,-3.40776 -2.99494,-2.20012 -3.34445,-5.08774 -3.38567,-7.80087 -0.001,-0.0624 -0.002,-0.13162 -0.002,-0.19345 -0.003,-0.30251 -0.003,-0.60504 3.3e-4,-0.91086 l 0.002,-0.18383 c 0.01,-0.82515 0.0406,-2.29382 3.14365,-8.08745 3.6257,-6.764437 11.36676,-19.298294 27.73783,-43.046302 5.28227,-7.662104 5.14444,-19.027914 5.14246,-19.141664 l -0.001,-0.06017 0.002,-0.06075 c 0.003,-0.05633 0.14904,-3.923514 0.0155,-8.119335 -0.17541,-5.51446 -0.70364,-7.889337 -1.03403,-8.857926 -0.122,-0.01925 -0.24334,-0.04008 -0.36336,-0.06258 -0.40326,-0.06342 -0.80981,-0.187124 -1.18999,-0.292366 -0.39238,-0.108258 -0.81938,-0.243441 -1.18307,-0.392649 -3.03252,-1.203513 -5.07421,-3.727597 -5.07421,-6.707814 z m 6.03174,0 c 0,1.36893 1.311,2.407027 3.05659,2.43451 1.05382,0.017 2.06609,0.384132 2.85975,1.028489 0.31851,0.258832 0.63571,0.58609 0.93379,1.055397 0.92786,1.473079 1.72316,4.351621 1.97442,11.141319 0.16058,4.329629 0.0237,8.336676 0.004,8.881008 0,0.01542 0,0.03542 3.3e-4,0.05517 0.009,1.301338 -0.0772,12.206891 -5.2882,20.5977 -0.21796,0.351441 -0.44613,0.700123 -0.68353,1.044964 -2.73808,3.972156 -9.75109,14.146535 -16.37701,24.378065 -0.31258,0.482224 -0.62418,0.964739 -0.93412,1.446963 -8.7596,13.60935 -11.63616,19.35352 -12.42586,21.58579 -0.0257,0.0706 -0.0501,0.1459 -0.0722,0.20938 -0.19652,0.57868 -0.24532,0.89275 -0.24828,1.06119 v 0.18437 c 6.6e-4,2.6535 0.0673,4.10267 1.34727,5.04267 1.94771,1.43076 6.8409,2.15451 14.57438,2.15698 h 56.09225 c 7.73381,-0.002 12.62733,-0.72622 14.57504,-2.15698 1.27968,-0.93945 1.34663,-2.38834 1.34728,-5.04103 v -0.1863 c -0.004,-0.1731 -0.0548,-0.49954 -0.26479,-1.10898 -0.0214,-0.0597 -0.0441,-0.1308 -0.0689,-0.19647 -0.80488,-2.25343 -3.69628,-8.0075 -12.4097,-21.54567 -0.33831,-0.526465 -0.67858,-1.052939 -1.01952,-1.579129 -6.59624,-10.179872 -13.55848,-20.281985 -16.28798,-24.241224 -0.29346,-0.425899 -0.57208,-0.857298 -0.83587,-1.292813 -5.14279,-8.481768 -5.153,-19.390346 -5.14213,-20.412234 -3.2e-4,-0.01542 -8.4e-4,-0.03625 -0.002,-0.05717 -0.0258,-0.716065 -0.15036,-4.61897 0.005,-8.826334 0.25555,-6.900972 1.07295,-9.763306 2.02158,-11.214943 0.28257,-0.429199 0.58165,-0.736123 0.88235,-0.981497 0.031,-0.0255 0.0623,-0.0505 0.0943,-0.075 0.77949,-0.59874 1.75746,-0.936989 2.77137,-0.954306 1.74495,-0.02775 3.05562,-1.06558 3.05562,-2.43396 0,-1.401629 -1.36343,-2.461151 -3.16673,-2.461151 h -24.89134 c -0.0356,0 -2.379,0.0075 -2.40736,0.02 -1.75317,0.02633 -3.06978,1.067772 -3.06978,2.441101"
           fill="#000000"
           id="path62022"
           style="stroke-width:0.249999;stroke-miterlimit:4;stroke-dasharray:none" />
        <path
           d="m 229.20648,78.002081 c 0.30137,-0.239332 1.87682,-1.088663 3.35962,-1.385696 0.34753,-0.0695 0.69671,-0.106058 1.02974,-0.09947 0.69012,0.01342 1.42443,0.238225 2.23161,0.561366 1.47785,0.590481 3.21519,1.506862 5.42504,2.032777 0.62748,0.14975 1.38519,0.191525 2.23754,0.153325 2.96559,-0.131342 7.04468,-1.232355 10.49661,-2.079494 1.0413,-0.255541 2.0252,-0.487724 2.90393,-0.66304 0.43425,-0.08677 0.90874,-0.143425 1.4129,-0.1731 0.55889,-0.03292 1.16525,-0.03217 1.80559,-0.0033 4.57268,0.212391 10.67302,1.843745 13.0352,2.429835 0.1619,0.04008 0.30566,0.07533 0.43062,0.104683 14.10781,21.250853 17.9208,29.006103 18.55026,30.964983 0.17607,0.5479 0.13783,1.52994 0.1075,2.18473 -0.002,0.0522 -0.005,0.10302 -0.006,0.1525 -0.0294,0.60835 -0.34623,1.19665 -0.84445,1.59369 -0.0316,0.0237 -0.0643,0.0538 -0.0976,0.0762 -0.24334,0.18191 -0.53845,0.32616 -0.86851,0.41409 -3.12088,0.83311 -7.84822,0.97737 -11.30675,0.97737 h -56.02181 c -3.45095,0 -8.18455,-0.14371 -11.30642,-0.97711 -0.32743,-0.0874 -0.61957,-0.2308 -0.86225,-0.41023 -0.55889,-0.41381 -0.91961,-1.05046 -0.94665,-1.69014 -0.0521,-1.25435 -0.0402,-1.89485 0.0983,-2.33174 0.70331,-2.18364 3.03747,-7.84182 19.13585,-31.832719"
           fill="#000000"
           id="path62240"
           style="fill:#39cac4;fill-opacity:1;stroke-width:0.301001" />
      </g>
      <g
         id="g2750"
         transform="matrix(1.0773514,0,0,1.0773514,-132.53556,272.12993)">
        <path
           d="m 241.84864,25.953135 c -4.07755,0.45102 -7.57551,2.87551 -9.50612,6.609183 -0.81531,1.566326 -0.96531,1.716326 -1.67347,1.824489 -1.15918,0.192857 -2.46734,0.90102 -3.4551,1.888775 -3.17551,3.132653 -2.40306,8.562244 1.48061,10.601019 l 1.18061,0.622449 0.15,1.50204 c 0.0643,0.836735 0.19286,2.017347 0.25715,2.618367 0.12857,1.07347 0.12857,1.094898 -0.47245,1.244898 -0.85816,0.214286 -5.60102,2.511224 -7.23163,3.47653 -6.86735,4.139795 -10.45102,9.118366 -10.45102,14.546937 0,3.819387 1.30918,6.609182 4.72143,9.999998 3.08979,3.089796 6.73775,5.429591 11.54489,7.424489 l 2.01735,0.836734 -0.12857,0.965306 c -1.07347,8.32653 -0.57959,13.776531 1.69489,18.390811 1.63062,3.32653 4.20613,5.68674 7.36021,6.73776 1.15918,0.38673 1.93163,0.49387 3.88367,0.49387 l 2.46735,0.0214 0.8153,0.87959 c 2.40306,2.59694 6.6949,2.74694 9.42041,0.34388 1.30918,-1.15918 1.97449,-2.66122 2.10306,-4.76428 l 0.0857,-1.82449 1.88878,-1.3949 c 1.02959,-0.75102 1.97449,-1.41633 2.0602,-1.43776 0.10715,-0.0429 0.77245,0.38674 1.48062,0.92245 3.66938,2.89694 8.56224,5.55817 12.2102,6.65204 1.67347,0.51531 2.31734,0.60102 4.82857,0.60102 2.48877,0.0214 3.08979,-0.0429 4.33469,-0.47245 5.21429,-1.80306 8.56225,-6.84591 9.39898,-14.09897 0.34286,-3.133676 0.25714,-6.051022 -0.32245,-10.836736 l -0.15,-1.180612 1.78163,-0.729591 c 4.82857,-1.97449 8.69082,-4.441836 11.78163,-7.531632 3.39082,-3.387754 4.72143,-6.198978 4.72143,-9.95408 0,-2.811224 -0.62245,-4.871428 -2.2102,-7.210203 -0.72959,-1.073469 -0.75102,-1.137755 -0.45102,-1.845918 0.40816,-0.965306 0.38673,-3.412244 -0.0429,-4.656121 -0.17143,-0.536735 -0.72959,-1.416327 -1.20204,-1.97449 -1.78061,-2.017347 -4.16326,-2.789795 -6.63061,-2.167347 -0.75102,0.192858 -1.7602,0.622449 -2.23163,0.943878 l -0.85817,0.60102 -2.03877,-0.922449 c -1.11633,-0.515306 -2.16735,-0.922448 -2.33878,-0.922448 -0.21428,0 -0.25714,-0.235715 -0.17143,-1.029592 1.0296,-8.111223 0.51531,-13.862243 -1.65204,-18.390814 -1.18061,-2.467346 -2.38163,-3.947958 -4.2704,-5.27857 -4.91429,-3.455102 -11.88878,-2.832653 -19.67857,1.781632 -1.11633,0.665306 -3.00408,1.910204 -4.18469,2.811224 l -2.14592,1.587755 -1.60919,-1.223469 c -6.93163,-5.237754 -13.26224,-7.662244 -18.56224,-7.082652 z m 5.34286,4.806122 c 2.85408,0.793877 6.33061,2.596938 9.74285,5.085713 l 1.78164,1.309184 -1.88878,1.974489 c -2.33877,2.42449 -4.44184,4.807142 -6.37347,7.25306 l -1.45918,1.867347 -1.22347,0.128571 c -2.29592,0.278572 -7.01735,1.202041 -9.95714,1.953061 -1.63061,0.429592 -3.02551,0.729592 -3.06837,0.665306 -0.12857,-0.128571 -0.49388,-2.596938 -0.5153,-3.283673 0,-0.321428 0.17142,-0.515306 0.5153,-0.60102 0.85816,-0.214286 2.6398,-1.995918 3.26225,-3.262244 1.18061,-2.403061 0.6653,-5.472449 -1.22347,-7.445918 l -1.03062,-1.072448 0.4296,-0.858164 c 0.53673,-1.030612 2.23163,-2.768367 3.21836,-3.283673 1.93164,-0.987754 5.06429,-1.159183 7.7898,-0.429591 z m 37.08162,0.193877 c 4.24898,1.888775 6.41633,7.896938 5.75102,15.943875 -0.23571,3.089796 -0.40816,4.163265 -0.62244,4.163265 -0.0857,0 -1.45919,-0.342857 -3.04694,-0.75102 -2.87551,-0.729592 -7.57551,-1.652041 -9.91429,-1.931633 -1.22347,-0.128571 -1.24489,-0.15 -2.44694,-1.673469 -1.88877,-2.403061 -3.79795,-4.548979 -6.26632,-7.081631 l -2.27347,-2.318367 0.64388,-0.536735 c 3.41224,-2.789795 8.43367,-5.45102 11.78163,-6.223468 2.01632,-0.45 4.87041,-0.277551 6.39387,0.409183 z m -19.07754,12.381631 c 1.58775,1.65204 3.08979,3.262244 3.32653,3.583673 l 0.42959,0.60102 h -6.82449 -6.82449 l 0.45102,-0.643877 c 0.60102,-0.815306 6.15918,-6.544897 6.37347,-6.544897 0.0857,0 1.48061,1.35204 3.06837,3.004081 z m 6.65306,8.926529 1.00816,0.128571 2.23163,3.369388 c 1.22347,1.845918 2.7898,4.313264 3.4551,5.493876 1.63062,2.811224 4.82857,9.184693 4.82857,9.591836 0,0.45102 -2.63979,5.793876 -4.4204,8.926529 -1.5449,2.704081 -5.62245,9.013264 -6.11633,9.420406 -0.38673,0.3 -6.43775,0.708164 -10.70816,0.708164 -4.27041,0 -10.32143,-0.408164 -10.70816,-0.729592 -0.47245,-0.365306 -3.88367,-5.558163 -5.60102,-8.497958 -1.78061,-3.045918 -4.93571,-9.333672 -4.93571,-9.806121 0,-0.472449 2.74693,-5.986734 4.50612,-9.077549 0.85816,-1.480612 2.55408,-4.184694 3.77653,-6.05204 l 2.23163,-3.347959 1.88877,-0.15 c 1.0296,-0.06429 2.06021,-0.171428 2.29592,-0.214286 0.6449,-0.106122 15.08673,0.08673 16.26735,0.236735 z m -26.45918,1.073469 c 0,0.06429 -0.17143,0.386735 -0.40817,0.686735 -0.94387,1.330612 -3.62653,5.922448 -4.97857,8.519386 -1.43775,2.768367 -1.45918,2.768367 -1.69489,2.145918 -1.11633,-2.832652 -2.87551,-8.927549 -2.6398,-9.141835 0.23571,-0.214286 3.13265,-0.986735 6.3949,-1.694898 3.04694,-0.665306 3.32653,-0.708163 3.32653,-0.515306 z m 36.73775,0.515306 c 1.69489,0.365306 3.84081,0.879592 4.78571,1.137755 1.67347,0.493878 1.71633,0.515306 1.65204,1.116327 -0.0857,0.75102 -2.01735,7.188774 -2.51122,8.347957 l -0.36429,0.836735 -1.48061,-2.812244 c -0.81531,-1.566327 -2.33878,-4.248979 -3.41225,-5.965306 -1.05102,-1.737754 -1.93163,-3.175509 -1.93163,-3.218366 0,-0.129592 0.0214,-0.129592 3.26225,0.557142 z m -50.3653,4.763265 c 0.64388,2.57551 2.01735,6.759182 3.13265,9.591835 l 1.05102,2.639796 -1.15714,3.047958 c -1.28776,3.369387 -2.72551,7.746938 -3.13265,9.635713 -0.34388,1.480612 -0.0857,1.480612 -3.84082,-0.30102 -5.34388,-2.554082 -8.88469,-5.493877 -10.45204,-8.669387 -0.79388,-1.587755 -0.83673,-1.803061 -0.83673,-3.62653 0,-1.824489 0.0643,-2.081632 0.8153,-3.647958 1.33061,-2.811224 4.97857,-6.073469 9.16327,-8.175509 1.63061,-0.836735 4.35612,-2.017347 4.63469,-2.038775 0.10816,-10e-4 0.38673,0.707142 0.62245,1.543877 z m 63.0908,-0.879592 1.60919,0.686735 v 1.244898 c 0,2.531632 1.45918,4.871427 3.73367,5.965305 1.37347,0.665306 3.58367,0.836734 4.93571,0.386734 l 0.98674,-0.343877 0.79388,1.65204 c 0.77245,1.52347 0.8153,1.760204 0.8153,3.583673 0,1.82449 -0.0428,2.060204 -0.8153,3.62653 -1.58776,3.17653 -5.19286,6.180612 -10.47143,8.691836 -3.79796,1.803061 -3.4551,1.803061 -3.92755,-0.04286 -0.66531,-2.575509 -1.82449,-6.094896 -3.04694,-9.291835 l -1.15918,-3.046938 1.15918,-3.005102 c 1.15816,-2.939795 2.59694,-7.424488 3.13265,-9.657141 0.12858,-0.60102 0.34286,-1.116326 0.45102,-1.116326 0.10817,0 0.92347,0.30102 1.80306,0.666326 z m -55.14999,20.965303 c 0.94388,1.844898 4.29184,7.55408 5.34286,9.098978 0.38673,0.60102 0.38673,0.60102 -0.0643,0.60102 -0.9653,0 -9.07755,-1.910203 -9.37755,-2.188775 -0.21428,-0.214285 2.61837,-9.613264 2.89694,-9.613264 0.0643,-0.001 0.62245,0.943878 1.20204,2.102041 z m 47.27449,1.373469 c 1.15918,3.690816 1.80306,6.008162 1.67347,6.136734 -0.3,0.278571 -8.41225,2.188775 -9.37755,2.188775 -0.45102,0 -0.45102,0 -0.0643,-0.60102 0.98673,-1.459184 4.37755,-7.231632 5.34388,-9.120407 0.60102,-1.137755 1.13775,-2.081632 1.20204,-2.081632 0.0633,10e-4 0.62143,1.568367 1.22245,3.47755 z m -45.98775,12.103059 c 1.41632,0.3 3.81939,0.729592 5.3653,0.965306 1.52347,0.235715 2.7898,0.451021 2.7898,0.472449 0.0214,0.02143 0.79388,1.008163 1.73775,2.188775 1.99592,2.511225 3.32653,4.013265 5.96531,6.716327 1.15918,1.18061 1.86735,2.0602 1.73775,2.14592 -0.12857,0.0857 -0.77245,0.55816 -1.43775,1.05204 -0.68674,0.5153 -1.30918,0.92245 -1.41633,0.92245 -0.10714,0 -0.6653,-0.25715 -1.2449,-0.60102 -0.94387,-0.51531 -1.26632,-0.5796 -3.08979,-0.5796 -2.23163,0 -3.0898,0.30102 -4.59184,1.63062 -0.83673,0.70816 -2.0602,2.98265 -2.0602,3.7551 0,0.3653 -0.15,0.53673 -0.55816,0.64388 -0.81531,0.21428 -3.41225,-0.27858 -4.54898,-0.85817 -2.33878,-1.18061 -4.22755,-4.18469 -5.02143,-7.98265 -0.38673,-1.88877 -0.40816,-2.6398 -0.3,-6.523468 0.0643,-2.424489 0.17143,-4.656122 0.23571,-4.957142 l 0.15,-0.579592 1.8449,0.515306 c 1.03163,0.279592 3.02653,0.773469 4.44286,1.073469 z m 48.90611,4.7 c 0.0214,3.819387 -0.0429,5.042857 -0.3653,6.352037 -0.79388,3.36939 -2.72551,6.28776 -4.89286,7.38163 -3.81939,1.95306 -9.44183,0.62245 -15.87959,-3.73367 -1.22347,-0.83673 -2.46837,-1.71633 -2.74694,-1.95306 l -0.5153,-0.45102 2.01734,-2.08163 c 2.31735,-2.38163 4.22755,-4.548981 6.20204,-7.017348 0.75102,-0.943878 1.37347,-1.738776 1.3949,-1.760204 0,-0.02143 1.26633,-0.235714 2.7898,-0.472449 3.23979,-0.493878 7.16734,-1.309184 9.76428,-2.017347 l 1.82347,-0.515306 0.19286,0.772449 c 0.12959,0.431633 0.2153,2.898979 0.2153,5.495918 z m -21.80305,-1.566327 c -0.49388,0.622449 -2.06021,2.27449 -3.43368,3.712245 l -2.53163,2.574489 -2.51122,-2.57551 c -1.3949,-1.416326 -2.96123,-3.089795 -3.45511,-3.712244 L 255.21701,94.1919 h 6.9102 6.9102 z"
           id="path2084"
           style="stroke-width:0.0102041" />
        <path
           d="m 259.57313,61.274558 c -2.83265,0.75102 -5.12857,2.682653 -6.3949,5.364285 -0.70816,1.480612 -0.8153,1.931632 -0.87959,3.647958 -0.15,3.132653 0.62245,5.257142 2.70408,7.424489 2.23163,2.338775 5.55816,3.47653 8.64796,2.961224 2.10306,-0.365306 4.14184,-1.437755 5.60102,-2.961224 2.10306,-2.188775 2.85408,-4.313265 2.70408,-7.489795 -0.10714,-1.759183 -0.21429,-2.210203 -0.90102,-3.62653 -2.16837,-4.355101 -6.9102,-6.543876 -11.48163,-5.320407 z"
           id="path2086"
           style="fill:#39cac4;fill-opacity:1;stroke-width:0.0102041" />
      </g>
      <g
         id="g2175"
         transform="matrix(0.7270767,0,0,0.7270767,17.41837,71.06993)">
        <path
           style="fill:none;stroke:#39cac4;stroke-width:7;stroke-linecap:round;stroke-linejoin:miter;stroke-miterlimit:4;stroke-dasharray:7, 14;stroke-dashoffset:0;stroke-opacity:1"
           d="M 127.70705,104.00886 116.85278,57.127077"
           id="path3429" />
        <path
           style="fill:none;stroke:#39cac4;stroke-width:7;stroke-linecap:round;stroke-linejoin:miter;stroke-miterlimit:4;stroke-dasharray:7, 14;stroke-dashoffset:0;stroke-opacity:1"
           d="m 127.70705,104.00886 51.34348,11.99598"
           id="path3431" />
        <path
           style="fill:none;stroke:#39cac4;stroke-width:7;stroke-linecap:round;stroke-linejoin:miter;stroke-miterlimit:4;stroke-dasharray:7, 14;stroke-dashoffset:0;stroke-opacity:1"
           d="M 142.2746,193.35265 127.70705,104.00886 57.348078,182.27845"
           id="path3433" />
        <path
           style="fill:none;stroke:#39cac4;stroke-width:7;stroke-linecap:round;stroke-linejoin:miter;stroke-miterlimit:4;stroke-dasharray:7, 14;stroke-dashoffset:0;stroke-opacity:1"
           d="M 127.70705,104.00886 41.636529,98.086415"
           id="path3435" />
        <g
           id="g3427"
           style="stroke:#000000;stroke-width:7;stroke-miterlimit:4;stroke-dasharray:none;stroke-opacity:1"
           transform="translate(5.3155378,13.288844)">
          <path
             style="fill:none;stroke:#000000;stroke-width:7;stroke-linecap:butt;stroke-linejoin:miter;stroke-miterlimit:4;stroke-dasharray:none;stroke-opacity:1"
             d="M 36.320991,84.797571 78.373509,103.06653 52.03254,168.98961"
             id="path3418" />
          <path
             style="fill:none;stroke:#000000;stroke-width:7;stroke-linecap:butt;stroke-linejoin:miter;stroke-miterlimit:4;stroke-dasharray:none;stroke-opacity:1"
             d="M 111.53724,43.838233 78.373509,103.06653 136.95906,180.06381"
             id="path3420" />
          <path
             style="fill:none;stroke:#000000;stroke-width:7;stroke-linecap:butt;stroke-linejoin:miter;stroke-miterlimit:4;stroke-dasharray:none;stroke-opacity:1"
             d="M 78.373509,103.06653 173.73499,102.716"
             id="path3422" />
        </g>
        <path
           style="fill:none;stroke:#000000;stroke-width:7;stroke-linecap:butt;stroke-linejoin:round;stroke-miterlimit:4;stroke-dasharray:none;stroke-opacity:1"
           d="M 116.85278,57.127077 179.05053,116.00484 142.2746,193.35265 57.348078,182.27845 41.636529,98.086417 Z"
           id="path3386" />
      </g>
      <g
         id="g891"
         transform="matrix(0.83333335,0,0,0.83332916,62.111879,67.280259)">
        <path
           d="m 345.46614,321.28957 c -9.91196,0 -17.9754,8.06384 -17.9754,17.9754 0,9.91156 8.06344,17.9754 17.9754,17.9754 9.91196,0 17.9754,-8.06384 17.9754,-17.9754 0,-9.91156 -8.06384,-17.9754 -17.9754,-17.9754 z m 0,29.29324 c -6.24051,0 -11.31784,-5.07693 -11.31784,-11.31784 0,-6.24091 5.07693,-11.31784 11.31784,-11.31784 6.24091,0 11.31784,5.07693 11.31784,11.31784 0,6.24091 -5.07773,11.31784 -11.31784,11.31784 z"
           id="path2861"
           style="stroke-width:0.399853" />
        <path
           d="m 404.3677,352.57488 -10.17946,-9.18982 v -8.24018 l 10.17906,-9.18902 c 1.04522,-0.94405 1.38389,-2.4439 0.84449,-3.74503 l -5.44,-13.13357 c -0.539,-1.30072 -1.83452,-2.12122 -3.24481,-2.05045 l -13.69577,0.69935 -5.82626,-5.82626 0.69935,-13.69537 c 0.072,-1.40669 -0.74933,-2.70661 -2.05045,-3.24521 l -13.13397,-5.4404 c -1.30073,-0.5398 -2.80098,-0.20033 -3.74463,0.84409 l -9.19022,10.17946 h -8.23938 l -9.18942,-10.17946 c -0.94405,-1.04482 -2.4439,-1.3827 -3.74463,-0.84409 l -13.13357,5.44 c -1.30152,0.539 -2.12242,1.83892 -2.05045,3.24521 l 0.69974,13.69537 -5.82665,5.82626 -13.69577,-0.69935 c -1.40189,-0.0752 -2.70621,0.74933 -3.24481,2.05045 l -5.4408,13.13357 c -0.53901,1.30153 -0.20073,2.80098 0.84449,3.74503 l 10.17906,9.18902 v 8.24018 l -10.17826,9.18982 c -1.04522,0.94405 -1.3839,2.4439 -0.84449,3.74503 l 5.44,13.13357 c 0.539,1.30152 1.84052,2.12762 3.24481,2.05045 l 13.69577,-0.69935 5.82665,5.82626 -0.69974,13.69537 c -0.072,1.40669 0.74933,2.70661 2.05045,3.24521 l 13.13357,5.4404 c 1.30153,0.5406 2.80098,0.20073 3.74463,-0.84409 l 9.19022,-10.17946 h 8.23938 l 9.19022,10.17946 c 0.64496,0.71374 1.54863,1.098 2.47189,1.098 0.42825,0 0.86049,-0.0832 1.27273,-0.25351 l 13.13358,-5.4404 c 1.30152,-0.539 2.12242,-1.83892 2.05045,-3.24521 l -0.69935,-13.69537 5.82626,-5.82626 13.69577,0.69935 c 1.40189,0.0712 2.70621,-0.74933 3.24481,-2.05045 l 5.44,-13.13357 c 0.539,-1.30153 0.20073,-2.80098 -0.84449,-3.74503 z m -9.84758,12.16033 -12.82689,-0.65536 c -0.94005,-0.0508 -1.85772,0.30549 -2.52347,0.97085 l -7.91869,7.91869 c -0.66616,0.66615 -1.01843,1.58262 -0.97085,2.52347 l 0.65496,12.82689 -8.79277,3.64226 -8.60683,-9.5337 c -0.63097,-0.69854 -1.52904,-1.09799 -2.4707,-1.09799 H 339.8666 c -0.94166,0 -1.83973,0.39905 -2.4707,1.09799 l -8.60683,9.5337 -8.79277,-3.64226 0.65535,-12.82689 c 0.048,-0.94085 -0.30508,-1.85772 -0.97124,-2.52347 l -7.91829,-7.91869 c -0.66576,-0.66576 -1.58142,-1.01963 -2.52347,-0.97085 l -12.82689,0.65536 -3.64226,-8.79277 9.5333,-8.60683 c 0.69894,-0.63177 1.09799,-1.52904 1.09799,-2.4707 v -11.19908 c 0,-0.94166 -0.39905,-1.83973 -1.09799,-2.4707 l -9.5333,-8.60683 3.64226,-8.79277 12.82689,0.65536 c 0.94125,0.0496 1.85771,-0.30509 2.52347,-0.97085 l 7.91829,-7.91829 c 0.66616,-0.66616 1.01923,-1.58262 0.97124,-2.52427 l -0.65535,-12.82689 8.79277,-3.64226 8.60683,9.5333 c 0.63097,0.69854 1.52904,1.09799 2.4707,1.09799 h 11.19828 c 0.94166,0 1.83973,-0.39905 2.4707,-1.09799 l 8.60683,-9.5333 8.79277,3.64226 -0.65496,12.82689 c -0.048,0.94085 0.30429,1.85732 0.97085,2.52427 l 7.91869,7.91829 c 0.66615,0.66576 1.58302,1.02523 2.52347,0.97085 l 12.82689,-0.65536 3.64226,8.79277 -9.5337,8.60683 c -0.69894,0.63177 -1.09799,1.52904 -1.09799,2.4707 v 11.19908 c 0,0.94166 0.39905,1.83973 1.09799,2.4707 l 9.5337,8.60683 z"
           id="path2863"
           style="stroke-width:0.399853" />
        <path
           d="m 345.46614,307.79733 c -17.35123,0 -31.46764,14.11681 -31.46764,31.46764 0,17.35123 14.11641,31.46764 31.46764,31.46764 17.35123,0 31.46764,-14.11681 31.46764,-31.46764 -4e-4,-17.35123 -14.11681,-31.46764 -31.46764,-31.46764 z m 0,56.27773 c -13.68058,0 -24.81009,-11.12952 -24.81009,-24.81009 0,-13.68057 11.12951,-24.81009 24.81009,-24.81009 13.68057,0 24.81009,11.12952 24.81009,24.81009 0,13.68057 -11.13032,24.81009 -24.81009,24.81009 z"
           id="path2865"
           style="fill:#39cac4;fill-opacity:1;stroke-width:0.4;stroke-miterlimit:4;stroke-dasharray:none" />
      </g>
      <g
         id="g2873"
         transform="matrix(0.39985312,0,0,0.39985312,325.82289,277.04402)" />
      <g
         id="g2875"
         transform="matrix(0.39985312,0,0,0.39985312,325.82289,277.04402)" />
      <g
         id="g2877"
         transform="matrix(0.39985312,0,0,0.39985312,325.82289,277.04402)" />
      <g
         id="g2879"
         transform="matrix(0.39985312,0,0,0.39985312,325.82289,277.04402)" />
      <g
         id="g2881"
         transform="matrix(0.39985312,0,0,0.39985312,325.82289,277.04402)" />
      <g
         id="g2883"
         transform="matrix(0.39985312,0,0,0.39985312,325.82289,277.04402)" />
      <g
         id="g2885"
         transform="matrix(0.39985312,0,0,0.39985312,325.82289,277.04402)" />
      <g
         id="g2887"
         transform="matrix(0.39985312,0,0,0.39985312,325.82289,277.04402)" />
      <g
         id="g2889"
         transform="matrix(0.39985312,0,0,0.39985312,325.82289,277.04402)" />
      <g
         id="g2891"
         transform="matrix(0.39985312,0,0,0.39985312,325.82289,277.04402)" />
      <g
         id="g2893"
         transform="matrix(0.39985312,0,0,0.39985312,325.82289,277.04402)" />
      <g
         id="g2895"
         transform="matrix(0.39985312,0,0,0.39985312,325.82289,277.04402)" />
      <g
         id="g2897"
         transform="matrix(0.39985312,0,0,0.39985312,325.82289,277.04402)" />
      <g
         id="g2899"
         transform="matrix(0.39985312,0,0,0.39985312,325.82289,277.04402)" />
      <g
         id="g2901"
         transform="matrix(0.39985312,0,0,0.39985312,325.82289,277.04402)" />
      <g
         id="g2692"
         transform="translate(4.7769156,-1.5875)">
        <circle
           style="fill:#f56e92;fill-opacity:0;stroke:#000000;stroke-width:4.77273;stroke-miterlimit:4;stroke-dasharray:none;stroke-opacity:1"
           cx="402.83975"
           cy="165.91345"
           r="50.113636"
           id="circle1472" />
        <g
           id="g2675">
          <g
             id="g1490"
             style="fill:#ff7226;fill-opacity:0;stroke:#39cac4;stroke-width:24.381;stroke-miterlimit:4;stroke-dasharray:none;stroke-opacity:1"
             transform="matrix(0.21142542,0,0,0.21142542,348.80702,112.48331)">
            <path
               style="fill:#ff7226;fill-opacity:0;stroke:#39cac4;stroke-width:24.381;stroke-miterlimit:4;stroke-dasharray:none;stroke-opacity:1"
               d="m 168.716,395.899 c -4.673,0 -9.386,-1.449 -13.422,-4.455 -13.212,-9.837 -24.899,-21.524 -34.737,-34.736 -7.423,-9.969 -5.359,-24.069 4.61,-31.491 9.968,-7.425 24.067,-5.36 31.492,4.61 7.227,9.704 15.811,18.289 25.514,25.514 9.97,7.423 12.034,21.522 4.611,31.492 -4.416,5.933 -11.199,9.066 -18.068,9.066 z"
               id="path1484" />
            <path
               style="fill:#ff7226;fill-opacity:0;stroke:#39cac4;stroke-width:24.381;stroke-miterlimit:4;stroke-dasharray:none;stroke-opacity:1"
               d="m 420.798,261.641 c 2.337,4.048 3.438,8.853 2.854,13.852 -1.914,16.36 -6.191,32.325 -12.715,47.451 -4.922,11.414 -18.164,16.675 -29.578,11.752 -11.414,-4.92 -16.675,-18.163 -11.754,-29.578 4.791,-11.111 7.933,-22.837 9.339,-34.853 1.444,-12.345 12.621,-21.183 24.968,-19.74 7.347,0.859 13.451,5.168 16.886,11.116 z"
               id="path1486" />
            <path
               style="fill:#ff7226;fill-opacity:0;stroke:#39cac4;stroke-width:24.381;stroke-miterlimit:4;stroke-dasharray:none;stroke-opacity:1"
               d="m 343.284,116.101 c 4.673,0 9.386,1.449 13.422,4.455 13.212,9.837 24.899,21.524 34.737,34.736 7.423,9.969 5.359,24.069 -4.61,31.491 -9.968,7.425 -24.067,5.36 -31.492,-4.61 -7.227,-9.704 -15.811,-18.289 -25.514,-25.514 -9.97,-7.423 -12.034,-21.522 -4.611,-31.492 4.416,-5.933 11.2,-9.066 18.068,-9.066 z"
               id="path1488" />
          </g>
          <g
             id="g1480"
             transform="matrix(0.21142542,0,0,0.21142542,348.80702,112.48331)"
             style="fill:#000000;fill-opacity:1">
            <circle
               style="fill:#000000;fill-opacity:1"
               cx="221.679"
               cy="425.354"
               r="8.4399996"
               id="circle1476" />
            <circle
               style="fill:#000000;fill-opacity:1"
               cx="202.549"
               cy="92.834999"
               r="8.4399996"
               id="circle1478" />
          </g>
          <circle
             style="fill:#ff9e46;fill-opacity:0;stroke:#000000;stroke-width:5.15476;stroke-miterlimit:4;stroke-dasharray:none;stroke-opacity:1"
             cx="402.93188"
             cy="136.00803"
             r="4.7581286"
             id="circle1482" />
          <path
             style="fill:#000000;fill-opacity:1;stroke:#000000;stroke-width:0.211345;stroke-miterlimit:4;stroke-dasharray:none;stroke-opacity:0"
             d="m 416.61284,190.30753 c -4.13865,2.39481 -8.86929,3.6604 -13.68092,3.6604 -0.98545,0 -1.78442,0.79877 -1.78442,1.78444 0,0.98567 0.79897,1.78443 1.78442,1.78443 5.43829,0 10.78694,-1.43177 15.4681,-4.14034 0.8531,-0.49348 1.14467,-1.58507 0.65076,-2.43795 -0.49324,-0.8531 -1.58547,-1.14488 -2.43794,-0.65098 z"
             id="path1492" />
          <path
             style="fill:#000000;fill-opacity:1;stroke:#000000;stroke-width:0.211345;stroke-miterlimit:4;stroke-dasharray:none;stroke-opacity:0"
             d="m 389.25101,142.90891 c 0.85289,-0.49346 1.14445,-1.58506 0.65098,-2.43795 -0.49347,-0.85331 -1.58568,-1.14445 -2.43816,-0.65077 -9.53655,5.51758 -15.46049,15.78206 -15.46049,26.78782 0,0.98566 0.79899,1.78443 1.78444,1.78443 0.98545,0 1.78443,-0.79877 1.78443,-1.78443 -2.1e-4,-9.73615 5.24124,-18.81708 13.6788,-23.6991 z"
             id="path1494" />
          <path
             style="fill:#000000;fill-opacity:1;stroke:#000000;stroke-width:0.211345;stroke-miterlimit:4;stroke-dasharray:none;stroke-opacity:0"
             d="m 378.53851,139.69144 c -0.69686,-0.69665 -1.82672,-0.69665 -2.52337,0 -4.73254,4.73275 -8.14262,10.63279 -9.86129,17.0633 -0.25457,0.95204 0.311,1.92989 1.26305,2.18466 0.15433,0.0413 0.30931,0.0609 0.46175,0.0609 0.78819,0 1.50957,-0.52645 1.7227,-1.32395 1.55692,-5.82498 4.64734,-11.1713 8.93695,-15.46091 0.69706,-0.69728 0.69706,-1.82693 2.1e-4,-2.52399 z"
             id="path1496" />
          <path
             id="path1498"
             style="fill:#000000;fill-opacity:1;stroke:#000000;stroke-width:0.211345;stroke-miterlimit:4;stroke-dasharray:none;stroke-opacity:0"
             d="m 387.37037,149.26336 c -0.45665,0 -0.91217,0.1732 -1.26049,0.52152 -4.49364,4.49364 -6.96898,10.4686 -6.96898,16.82342 0,0.98566 0.79856,1.78403 1.78401,1.78403 0.98546,0 1.78403,-0.79837 1.78403,-1.78403 0,-2.06626 0.31,-4.08516 0.9041,-6.00449 l 6.17564,2.5351 a 13.628428,13.628429 0 0 1 1.37124,-3.2942 l -6.18973,-2.54114 c 0.94507,-1.81889 2.17172,-3.50429 3.6627,-4.99568 0.69685,-0.69708 0.69685,-1.82616 0,-2.52301 -0.34843,-0.34832 -0.80586,-0.52152 -1.26252,-0.52152 z m 23.8951,28.21221 a 13.628428,13.628429 0 0 1 -3.08681,1.78805 l 3.28012,5.68432 c -1.05798,0.49326 -2.158,0.89573 -3.29018,1.19808 -0.95205,0.25456 -1.51685,1.23268 -1.26252,2.18472 0.21313,0.79792 0.93342,1.32495 1.72161,1.32495 0.15244,0 0.30697,-0.0192 0.46111,-0.0604 4.01982,-1.07447 7.70828,-3.20592 10.66591,-6.16356 0.69706,-0.69706 0.69706,-1.82657 0,-2.523 -0.69665,-0.69665 -1.82616,-0.69707 -2.52301,0 -0.83049,0.83049 -1.73057,1.58096 -2.68409,2.25118 z" />
          <circle
             style="fill:#f23e6d;fill-opacity:0;stroke:#000000;stroke-width:5.15476;stroke-miterlimit:4;stroke-dasharray:none;stroke-opacity:1"
             cx="402.93188"
             cy="166.60828"
             r="14.86955"
             id="circle1504" />
        </g>
      </g>
      <g
         id="g1506"
         transform="matrix(0.1957564,0,0,0.1957564,352.72613,115.79979)" />
      <g
         id="g1508"
         transform="matrix(0.1957564,0,0,0.1957564,352.72613,115.79979)" />
      <g
         id="g1510"
         transform="matrix(0.1957564,0,0,0.1957564,352.72613,115.79979)" />
      <g
         id="g1512"
         transform="matrix(0.1957564,0,0,0.1957564,352.72613,115.79979)" />
      <g
         id="g1514"
         transform="matrix(0.1957564,0,0,0.1957564,352.72613,115.79979)" />
      <g
         id="g1516"
         transform="matrix(0.1957564,0,0,0.1957564,352.72613,115.79979)" />
      <g
         id="g1518"
         transform="matrix(0.1957564,0,0,0.1957564,352.72613,115.79979)" />
      <g
         id="g1520"
         transform="matrix(0.1957564,0,0,0.1957564,352.72613,115.79979)" />
      <g
         id="g1522"
         transform="matrix(0.1957564,0,0,0.1957564,352.72613,115.79979)" />
      <g
         id="g1524"
         transform="matrix(0.1957564,0,0,0.1957564,352.72613,115.79979)" />
      <g
         id="g1526"
         transform="matrix(0.1957564,0,0,0.1957564,352.72613,115.79979)" />
      <g
         id="g1528"
         transform="matrix(0.1957564,0,0,0.1957564,352.72613,115.79979)" />
      <g
         id="g1530"
         transform="matrix(0.1957564,0,0,0.1957564,352.72613,115.79979)" />
      <g
         id="g1532"
         transform="matrix(0.1957564,0,0,0.1957564,352.72613,115.79979)" />
      <g
         id="g1534"
         transform="matrix(0.1957564,0,0,0.1957564,352.72613,115.79979)" />
      <g
         id="g2859"
         transform="matrix(1.000125,0,0,1.000125,0.57576466,-2.6621674)">
        <path
           sodipodi:type="star"
           style="fill:#39cac4;fill-opacity:1;stroke-width:0.100853;stroke-miterlimit:4;stroke-dasharray:none"
           id="path2843"
           sodipodi:sides="5"
           sodipodi:cx="249.81818"
           sodipodi:cy="215.33281"
           sodipodi:r1="57.833416"
           sodipodi:r2="46.788223"
           sodipodi:arg1="0.9526521"
           sodipodi:arg2="1.5809706"
           inkscape:flatsided="true"
           inkscape:rounded="0"
           inkscape:randomized="0"
           inkscape:transform-center-x="-0.18183253"
           inkscape:transform-center-y="-5.3493713"
           d="M 283.33402,262.46446 215.35028,261.77275 195,196.90262 250.40658,157.50239 305,198.02183 Z" />
        <path
           sodipodi:type="star"
           style="opacity:1;fill:#39cac4;fill-opacity:0;stroke:#000000;stroke-width:3;stroke-miterlimit:4;stroke-dasharray:none;stroke-opacity:1"
           id="path2855"
           sodipodi:sides="5"
           sodipodi:cx="249.06699"
           sodipodi:cy="214.75404"
           sodipodi:r1="82.25898"
           sodipodi:r2="66.548912"
           sodipodi:arg1="0.95502309"
           sodipodi:arg2="1.5833416"
           inkscape:flatsided="true"
           inkscape:rounded="0"
           inkscape:randomized="0"
           d="m 296.57894,281.90428 -96.69362,-1.21312 -28.72623,-92.33597 78.93983,-55.85365 77.51373,57.81651 z"
           inkscape:transform-center-x="-0.31888253"
           inkscape:transform-center-y="-7.5511398" />
      </g>
    </g>
  </g>
</svg>
