<?xml version="1.0" encoding="UTF-8" standalone="no"?>
<svg
   xmlns:dc="http://purl.org/dc/elements/1.1/"
   xmlns:cc="http://creativecommons.org/ns#"
   xmlns:rdf="http://www.w3.org/1999/02/22-rdf-syntax-ns#"
   xmlns:svg="http://www.w3.org/2000/svg"
   xmlns="http://www.w3.org/2000/svg"
   xmlns:sodipodi="http://sodipodi.sourceforge.net/DTD/sodipodi-0.dtd"
   xmlns:inkscape="http://www.inkscape.org/namespaces/inkscape"
   width="500mm"
   height="400mm"
   viewBox="0 0 500 400"
   version="1.1"
   id="svg8"
   inkscape:version="1.0.1 (c497b03c, 2020-09-10)"
   sodipodi:docname="feature2-dark.svg">
  <defs
     id="defs2" />
  <sodipodi:namedview
     id="base"
     pagecolor="#ffffff"
     bordercolor="#666666"
     borderopacity="1.0"
     inkscape:pageopacity="0.0"
     inkscape:pageshadow="2"
     inkscape:zoom="0.3082376"
     inkscape:cx="880.83456"
     inkscape:cy="536.68638"
     inkscape:document-units="mm"
     inkscape:current-layer="layer1"
     inkscape:document-rotation="0"
     showgrid="false"
     inkscape:window-width="1440"
     inkscape:window-height="855"
     inkscape:window-x="0"
     inkscape:window-y="23"
     inkscape:window-maximized="0" />
  <metadata
     id="metadata5">
    <rdf:RDF>
      <cc:Work
         rdf:about="">
        <dc:format>image/svg+xml</dc:format>
        <dc:type
           rdf:resource="http://purl.org/dc/dcmitype/StillImage" />
        <dc:title />
      </cc:Work>
    </rdf:RDF>
  </metadata>
  <g
     inkscape:groupmode="layer"
     id="layer2"
     inkscape:label="Layer 2" />
  <g
     inkscape:label="Layer 1"
     inkscape:groupmode="layer"
     id="layer1">
    <g
       id="g148"
       transform="matrix(0.78012019,0,0,0.78012019,54.780265,42.412251)">
      <path
         d="m 229.78234,11.576751 c 0,-3.3618821 2.78209,-6.0971818 6.61384,-6.7962355 0.62592,-0.1188165 1.35356,-0.1815454 2.03019,-0.1815454 h 25.2779 c 4.80675,0 8.57182,3.0648398 8.57182,6.9777809 0,2.742204 -1.85535,5.069833 -4.62237,6.206766 -0.32911,0.139553 -0.71659,0.267589 -1.07088,0.371039 -0.346,0.10115 -0.71503,0.220217 -1.08161,0.284239 -0.16685,0.03347 -0.33524,0.06399 -0.50578,0.09116 -0.30727,0.904167 -0.79862,3.11683 -0.96179,8.249396 -0.12474,3.917298 0.0126,7.527821 0.0141,7.568281 l 0.003,0.05631 -7.8e-4,0.05661 c -0.002,0.131616 -0.10566,10.731187 4.792,17.836233 15.27016,22.15094 22.4832,33.832134 25.85803,40.132117 2.88227,5.384028 2.91146,6.750905 2.92068,7.519096 l 0.002,0.171822 c 0.004,0.28397 0.004,0.56514 6.2e-4,0.84578 -6.2e-4,0.0569 -7.8e-4,0.12061 -0.002,0.17746 -0.0381,2.52992 -0.36198,5.224 -3.15512,7.27558 -2.99321,2.19858 -8.34414,3.18033 -17.33201,3.18033 h -52.17064 c -0.32879,0 -0.69046,-0.002 -1.0091,-0.004 -8.40437,-0.0692 -13.47721,-1.05806 -16.3607,-3.17572 -2.79101,-2.05031 -3.11673,-4.74131 -3.15514,-7.2697 -9.3e-4,-0.0582 -0.002,-0.12266 -0.002,-0.18028 -0.003,-0.28191 -0.003,-0.56384 3.1e-4,-0.84883 l 0.002,-0.171314 c 0.009,-0.768965 0.0378,-2.137631 2.92959,-7.536765 3.37883,-6.303837 10.59279,-17.984248 25.84913,-40.115222 4.92259,-7.140381 4.79415,-17.732278 4.7923,-17.838283 l -9.3e-4,-0.05607 0.002,-0.05661 c 0.003,-0.0525 0.13889,-3.656357 0.0145,-7.566479 -0.16347,-5.138973 -0.65573,-7.352141 -0.96362,-8.254778 -0.1137,-0.01794 -0.22677,-0.03735 -0.33862,-0.05832 -0.3758,-0.0591 -0.75467,-0.174382 -1.10896,-0.272458 -0.36567,-0.100887 -0.76359,-0.226865 -1.10252,-0.365913 -2.82603,-1.121564 -4.7287,-3.47378 -4.7287,-6.25107 z m 5.62103,0 c 0,1.275718 1.22173,2.243129 2.84846,2.268741 0.98206,0.01584 1.92541,0.357976 2.66503,0.958458 0.29682,0.241207 0.59242,0.546182 0.8702,0.983533 0.86468,1.372775 1.60583,4.055314 1.83998,10.382692 0.14965,4.034819 0.0221,7.769021 0.004,8.276288 0,0.01437 0,0.03301 3.1e-4,0.05141 0.008,1.212728 -0.0719,11.375707 -4.92812,19.195175 -0.20312,0.327511 -0.41576,0.652451 -0.63699,0.973811 -2.55164,3.701687 -9.08713,13.183279 -15.26188,22.71813 -0.29129,0.449389 -0.58168,0.899049 -0.87051,1.348438 -8.16315,12.682671 -10.84384,18.035713 -11.57977,20.115984 -0.024,0.06579 -0.0467,0.135966 -0.0673,0.195123 -0.18314,0.539277 -0.22862,0.831962 -0.23138,0.988936 v 0.17182 c 6.2e-4,2.47282 0.0627,3.82331 1.25554,4.6993 1.81508,1.33334 6.37509,2.00781 13.58199,2.01011 h 52.27285 c 7.20721,-0.002 11.76752,-0.67677 13.58261,-2.01011 1.19254,-0.87548 1.25493,-2.22571 1.25554,-4.69778 v -0.17361 c -0.004,-0.161317 -0.0511,-0.465529 -0.24676,-1.033472 -0.0199,-0.05563 -0.0411,-0.121893 -0.0642,-0.183092 -0.75007,-2.099991 -3.4446,-7.462259 -11.56471,-20.078597 -0.31527,-0.490617 -0.63237,-0.981243 -0.9501,-1.471604 -6.14709,-9.486711 -12.63526,-18.900957 -15.17891,-22.590606 -0.27347,-0.396899 -0.53312,-0.798924 -0.77895,-1.204784 -4.79261,-7.904233 -4.80213,-18.070032 -4.792,-19.022338 -2.9e-4,-0.01437 -7.8e-4,-0.03378 -0.002,-0.05328 -0.024,-0.667307 -0.14012,-4.304458 0.005,-8.225337 0.23815,-6.431076 0.99989,-9.09851 1.88393,-10.451303 0.26333,-0.399974 0.54204,-0.685999 0.82227,-0.914665 0.0289,-0.02376 0.058,-0.04706 0.0879,-0.06989 0.72641,-0.557971 1.63779,-0.873188 2.58266,-0.889326 1.62613,-0.02586 2.84756,-0.993023 2.84756,-2.268228 0,-1.30619 -1.27059,-2.293568 -2.9511,-2.293568 h -23.19646 c -0.0332,0 -2.21701,0.00699 -2.24344,0.018638 -1.63379,0.024537 -2.86075,0.995066 -2.86075,2.274883"
         fill="#000000"
         id="path62022"
         style="fill:#ffffff;fill-opacity:1;stroke-width:0.232976;stroke-miterlimit:4;stroke-dasharray:none" />
      <path
         d="m 230.62827,70.03111 c 0.28085,-0.223036 1.74902,-1.014535 3.13086,-1.291342 0.32386,-0.06477 0.64927,-0.09884 0.95962,-0.0927 0.64313,0.01251 1.32744,0.222004 2.07966,0.523142 1.37722,0.550274 2.99626,1.404257 5.05564,1.894362 0.58475,0.139553 1.29087,0.178484 2.08518,0.142885 2.76366,-0.122399 6.565,-1.148442 9.78188,-1.937898 0.9704,-0.238141 1.8873,-0.454515 2.7062,-0.617893 0.40468,-0.08086 0.84686,-0.133659 1.31669,-0.161314 0.52084,-0.03068 1.08591,-0.02998 1.68265,-0.0031 4.26132,0.197929 9.94628,1.718202 12.14762,2.264384 0.15087,0.03735 0.28484,0.0702 0.40129,0.09755 13.14719,19.803855 16.70055,27.031039 17.28715,28.856537 0.16408,0.510597 0.12845,1.425767 0.10018,2.035967 -0.002,0.0486 -0.005,0.096 -0.006,0.14212 -0.0274,0.56693 -0.32265,1.11517 -0.78695,1.48517 -0.0294,0.0221 -0.0599,0.0501 -0.091,0.071 -0.22677,0.16952 -0.50179,0.30395 -0.80938,0.38589 -2.90837,0.77638 -7.31382,0.91082 -10.53685,0.91082 H 224.9255 c -3.21598,0 -7.62726,-0.13393 -10.53656,-0.91058 -0.30513,-0.0815 -0.57738,-0.21508 -0.80353,-0.3823 -0.52084,-0.38563 -0.857,-0.97893 -0.8822,-1.57505 -0.0485,-1.16894 -0.0375,-1.76583 0.0916,-2.172973 0.65542,-2.034953 2.83065,-7.30786 17.83287,-29.665187"
         fill="#000000"
         id="path62240"
         style="fill:#39cac4;fill-opacity:1;stroke-width:0.280505" />
      <path
         d="m 137.07022,296.74836 c -4.48531,0.49612 -8.33307,3.16306 -10.45674,7.2701 -0.89684,1.72296 -1.06184,1.88796 -1.84082,2.00694 -1.27509,0.21214 -2.71407,0.99112 -3.80061,2.07765 -3.49306,3.44592 -2.64336,9.41847 1.62867,11.66113 l 1.29868,0.68469 0.165,1.65224 c 0.0707,0.92041 0.21214,2.21909 0.28286,2.88021 0.14143,1.18082 0.14143,1.20439 -0.51969,1.36939 -0.94398,0.23571 -6.16113,2.76234 -7.9548,3.82418 -7.55409,4.55378 -11.49612,10.03021 -11.49612,16.00164 0,4.20132 1.44009,7.2701 5.19357,11 3.39877,3.39877 7.41153,5.97255 12.69938,8.16694 l 2.21909,0.9204 -0.14143,1.06184 c -1.18082,9.15919 -0.63755,15.15419 1.86438,20.2299 1.79368,3.65918 4.62674,6.25541 8.09623,7.41154 1.2751,0.4254 2.1248,0.54325 4.27204,0.54325 l 2.71409,0.0235 0.89683,0.96755 c 2.64336,2.85664 7.36439,3.02164 10.36245,0.37827 1.4401,-1.2751 2.17194,-2.92734 2.31337,-5.24071 l 0.0943,-2.00694 2.07766,-1.53439 c 1.13255,-0.82612 2.17194,-1.55796 2.26622,-1.58153 0.11786,-0.0472 0.84969,0.42541 1.62868,1.01469 4.03632,3.18664 9.41847,6.11399 13.43122,7.31725 1.84082,0.56684 2.54908,0.66112 5.31143,0.66112 2.73765,0.0235 3.39877,-0.0472 4.76816,-0.5197 5.73572,-1.98336 9.41848,-7.5305 10.33888,-15.50887 0.37715,-3.44704 0.28286,-6.65612 -0.35469,-11.92041 l -0.165,-1.29867 1.95979,-0.80255 c 5.31143,-2.17194 9.55991,-4.88603 12.9598,-8.2848 3.7299,-3.72653 5.19357,-6.81888 5.19357,-10.94949 0,-3.09235 -0.68469,-5.35858 -2.43122,-7.93123 -0.80255,-1.18081 -0.82612,-1.25153 -0.49612,-2.03051 0.44898,-1.06184 0.4254,-3.75347 -0.0472,-5.12173 -0.18857,-0.59041 -0.80255,-1.55796 -1.32224,-2.17194 -1.95868,-2.21909 -4.57959,-3.06878 -7.29368,-2.38409 -0.82612,0.21215 -1.93622,0.6847 -2.45479,1.03827 l -0.94399,0.66112 -2.24265,-1.01469 c -1.22796,-0.56684 -2.38408,-1.01469 -2.57265,-1.01469 -0.23571,0 -0.28286,-0.25929 -0.18858,-1.13256 1.13256,-8.92234 0.56684,-15.24847 -1.81724,-20.2299 -1.29867,-2.71408 -2.6198,-4.34275 -4.69744,-5.80643 -5.40572,-3.80061 -13.07767,-3.11591 -21.64644,1.9598 -1.22796,0.73184 -3.30449,2.10123 -4.60316,3.09235 l -2.36051,1.74653 -1.77011,-1.34582 c -7.62479,-5.76153 -14.58847,-8.42847 -20.41847,-7.79092 z m 5.87714,5.28673 c 3.13949,0.87327 6.96368,2.85663 10.71714,5.59429 l 1.95981,1.4401 -2.07766,2.17194 c -2.57265,2.66694 -4.88603,5.28786 -7.01082,7.97837 l -1.6051,2.05408 -1.34582,0.14143 c -2.52551,0.30643 -7.71908,1.32224 -10.95285,2.14837 -1.79368,0.47255 -3.32807,0.80255 -3.37521,0.73183 -0.14143,-0.14143 -0.54327,-2.85663 -0.56683,-3.61204 0,-0.35357 0.18856,-0.56684 0.56683,-0.66112 0.94397,-0.23572 2.90378,-2.19551 3.58847,-3.58847 1.29868,-2.64337 0.73183,-6.0197 -1.34581,-8.19051 l -1.13369,-1.1797 0.47256,-0.94398 c 0.59041,-1.13367 2.4548,-3.0452 3.5402,-3.61204 2.12481,-1.08653 5.57072,-1.2751 8.56878,-0.47255 z m 40.7898,0.21327 c 4.67388,2.07765 7.05796,8.68663 6.32612,17.53826 -0.25928,3.39878 -0.44898,4.5796 -0.68468,4.5796 -0.0943,0 -1.60511,-0.37715 -3.35164,-0.82613 -3.16306,-0.80255 -8.33306,-1.81724 -10.90572,-2.12479 -1.34582,-0.14143 -1.36938,-0.165 -2.69163,-1.84082 -2.07765,-2.64337 -4.17775,-5.00388 -6.89296,-7.7898 l -2.50082,-2.5502 0.70827,-0.59041 c 3.75347,-3.06877 9.27704,-5.99612 12.9598,-6.84581 2.21795,-0.495 5.35745,-0.30531 7.03326,0.4501 z m -20.9853,13.61979 c 1.74652,1.81725 3.39877,3.58847 3.65918,3.94205 l 0.47255,0.66112 h -7.50694 -7.50694 l 0.49612,-0.70827 c 0.66112,-0.89683 6.7751,-7.19939 7.01082,-7.19939 0.0943,0 1.62867,1.48725 3.37521,3.30449 z m 7.31837,9.81919 1.10897,0.14143 2.4548,3.70633 c 1.34581,2.03051 3.06878,4.74459 3.80061,6.04326 1.79368,3.09235 5.31143,10.10317 5.31143,10.55102 0,0.49612 -2.90377,6.37327 -4.86245,9.81919 -1.69939,2.97449 -6.18469,9.91459 -6.72796,10.36245 -0.4254,0.33 -7.08153,0.77898 -11.77898,0.77898 -4.69745,0 -11.35358,-0.44898 -11.77898,-0.80255 -0.51969,-0.40184 -4.27204,-6.11399 -6.16112,-9.34776 -1.95867,-3.35051 -5.42929,-10.26704 -5.42929,-10.78674 0,-0.51969 3.02163,-6.58541 4.95674,-9.9853 0.94397,-1.62868 2.80949,-4.60317 4.15418,-6.65725 l 2.4548,-3.68275 2.07764,-0.165 c 1.13256,-0.0707 2.26623,-0.18858 2.52552,-0.23572 0.70939,-0.11673 16.5954,0.0954 17.89409,0.26041 z m -29.10511,1.18082 c 0,0.0707 -0.18857,0.4254 -0.44899,0.7554 -1.03825,1.46368 -3.98918,6.5147 -5.47643,9.37133 -1.58152,3.04521 -1.60509,3.04521 -1.86438,2.36051 -1.22796,-3.11592 -3.16306,-9.8203 -2.90378,-10.05602 0.25928,-0.23571 3.44592,-1.08541 7.0344,-1.86439 3.35163,-0.73183 3.65918,-0.77898 3.65918,-0.56683 z m 40.41154,0.56683 c 1.86438,0.40184 4.22489,0.96755 5.26428,1.25153 1.84082,0.54327 1.88796,0.56684 1.81724,1.22796 -0.0943,0.82613 -2.21908,7.90766 -2.76234,9.18276 l -0.40072,0.92041 -1.62867,-3.09347 c -0.89684,-1.72296 -2.57266,-4.67388 -3.75348,-6.56184 -1.15612,-1.91153 -2.12479,-3.49306 -2.12479,-3.5402 0,-0.14256 0.0235,-0.14256 3.58848,0.61285 z m -55.40185,5.23959 c 0.70827,2.83307 2.21909,7.43511 3.44592,10.55103 l 1.15612,2.90377 -1.27286,3.35276 c -1.41653,3.70632 -2.99806,8.52163 -3.44591,10.59928 -0.37827,1.62868 -0.0943,1.62868 -4.2249,-0.33112 -5.87827,-2.80949 -9.77317,-6.04326 -11.49725,-9.53633 -0.87327,-1.74653 -0.92041,-1.98336 -0.92041,-3.98918 0,-2.00694 0.0707,-2.2898 0.89684,-4.01275 1.46367,-3.09235 5.47642,-6.68082 10.07959,-8.99307 1.79368,-0.92041 4.79174,-2.21908 5.09817,-2.24265 0.11897,-10e-4 0.4254,0.77786 0.68469,1.69826 z m 69.3999,-0.96755 1.77011,0.75541 v 1.36939 c 0,2.7848 1.6051,5.35857 4.10704,6.56184 1.51081,0.73183 3.94204,0.92041 5.42928,0.42541 l 1.08541,-0.37827 0.87327,1.81724 c 0.8497,1.67582 0.89683,1.93623 0.89683,3.94205 0,2.00694 -0.0471,2.26622 -0.89683,3.98918 -1.74653,3.49418 -5.71215,6.79868 -11.51857,9.56102 -4.17776,1.98337 -3.80062,1.98337 -4.32031,-0.0471 -0.73184,-2.83306 -2.00694,-6.70439 -3.35164,-10.22102 l -1.27509,-3.35164 1.27509,-3.30561 c 1.27398,-3.23378 2.85664,-8.16694 3.44592,-10.62286 0.14144,-0.66112 0.37715,-1.22796 0.49612,-1.22796 0.11899,0 1.01582,0.33112 1.98337,0.73296 z m -60.66501,23.06184 c 1.03827,2.02939 4.72103,8.30949 5.87715,10.00888 0.4254,0.66112 0.4254,0.66112 -0.0707,0.66112 -1.06183,0 -9.98531,-2.10122 -10.31531,-2.40765 -0.2357,-0.23571 2.88021,-10.57459 3.18664,-10.57459 0.0707,-0.001 0.68469,1.03826 1.32224,2.31224 z m 52.00196,1.51082 c 1.2751,4.0599 1.98336,6.60898 1.84081,6.75041 -0.33,0.30643 -9.25347,2.40765 -10.3153,2.40765 -0.49613,0 -0.49613,0 -0.0707,-0.66112 1.0854,-1.6051 4.8153,-7.9548 5.87827,-10.03245 0.66112,-1.25153 1.25152,-2.2898 1.32224,-2.2898 0.0696,10e-4 0.68357,1.72521 1.3447,3.82531 z m -50.58654,13.31337 c 1.55795,0.33 4.20133,0.80255 5.90183,1.06183 1.67582,0.25929 3.06878,0.49613 3.06878,0.5197 0.0235,0.0236 0.87327,1.10898 1.91153,2.40765 2.19551,2.76235 3.65918,4.41459 6.56184,7.38796 1.2751,1.29868 2.05408,2.26622 1.91152,2.36052 -0.14142,0.0943 -0.84969,0.61397 -1.58152,1.15724 -0.75542,0.56683 -1.4401,1.0147 -1.55796,1.0147 -0.11786,0 -0.73183,-0.28287 -1.36939,-0.66113 -1.03826,-0.56684 -1.39296,-0.63756 -3.39877,-0.63756 -2.4548,0 -3.39879,0.33113 -5.05103,1.79369 -0.9204,0.77897 -2.26622,3.28091 -2.26622,4.13061 0,0.40183 -0.165,0.5904 -0.61398,0.70827 -0.89684,0.2357 -3.75347,-0.30644 -5.00388,-0.94399 -2.57265,-1.29867 -4.6503,-4.60316 -5.52357,-8.78092 -0.4254,-2.07765 -0.44898,-2.90378 -0.33,-7.17582 0.0707,-2.66693 0.18857,-5.12173 0.25928,-5.45285 l 0.165,-0.63756 2.02939,0.56684 c 1.13479,0.30755 3.32918,0.85082 4.88715,1.18082 z m 53.79673,5.17 c 0.0235,4.20133 -0.0472,5.54714 -0.40183,6.98724 -0.87326,3.70633 -2.99806,6.91654 -5.38214,8.1198 -4.20133,2.14836 -10.38602,0.68469 -17.46756,-4.10704 -1.34581,-0.9204 -2.71521,-1.88796 -3.02163,-2.14837 l -0.56683,-0.49612 2.21907,-2.28979 c 2.54909,-2.6198 4.65031,-5.00388 6.82225,-7.71909 0.82612,-1.03826 1.51082,-1.91265 1.53439,-1.93622 0,-0.0236 1.39296,-0.25929 3.06878,-0.5197 3.56377,-0.54326 7.88408,-1.4401 10.74071,-2.21908 l 2.00582,-0.56684 0.21214,0.8497 c 0.14255,0.47479 0.23683,3.18888 0.23683,6.04551 z m -23.98336,-1.72296 c -0.54327,0.68469 -2.26623,2.50194 -3.77705,4.08347 l -2.78479,2.83194 -2.76234,-2.83306 c -1.53439,-1.55796 -3.25736,-3.39878 -3.80063,-4.08347 l -1.03825,-1.22796 h 7.60122 7.60122 z"
         id="path2084"
         style="fill:#ffffff;fill-opacity:1;stroke:#ffffff;stroke-width:0.0112245;stroke-opacity:1" />
      <path
         d="m 156.56716,335.60193 c -3.11591,0.82612 -5.64143,2.95092 -7.03439,5.90072 -0.77898,1.62867 -0.89683,2.12479 -0.96755,4.01275 -0.165,3.44592 0.68469,5.78286 2.97449,8.16694 2.45479,2.57266 6.11398,3.82419 9.51276,3.25735 2.31336,-0.40184 4.55602,-1.58153 6.16112,-3.25735 2.31337,-2.40765 3.13949,-4.74459 2.97449,-8.23877 -0.11785,-1.93511 -0.23572,-2.43123 -0.99112,-3.98919 -2.38521,-4.79061 -7.60122,-7.19826 -12.6298,-5.85245 z"
         id="path2086"
         style="fill:#39cac4;fill-opacity:1;stroke-width:0.0112245" />
      <path
         style="fill:none;stroke:#39cac4;stroke-width:5.08954;stroke-linecap:round;stroke-linejoin:miter;stroke-miterlimit:4;stroke-dasharray:5.08954, 10.1791;stroke-dashoffset:0;stroke-opacity:1"
         d="M 110.27119,144.57568 102.3793,110.48903"
         id="path3429" />
      <path
         style="fill:none;stroke:#39cac4;stroke-width:5.08954;stroke-linecap:round;stroke-linejoin:miter;stroke-miterlimit:4;stroke-dasharray:5.08954, 10.1791;stroke-dashoffset:0;stroke-opacity:1"
         d="m 110.27119,144.57568 37.33065,8.722"
         id="path3431" />
      <path
         style="fill:none;stroke:#39cac4;stroke-width:5.08954;stroke-linecap:round;stroke-linejoin:miter;stroke-miterlimit:4;stroke-dasharray:5.08954, 10.1791;stroke-dashoffset:0;stroke-opacity:1"
         d="m 120.86292,209.53547 -10.59173,-64.95979 -51.156369,56.908"
         id="path3433" />
      <path
         style="fill:none;stroke:#39cac4;stroke-width:5.08954;stroke-linecap:round;stroke-linejoin:miter;stroke-miterlimit:4;stroke-dasharray:5.08954, 10.1791;stroke-dashoffset:0;stroke-opacity:1"
         d="M 110.27119,144.57568 47.69132,140.26961"
         id="path3435" />
      <g
         id="g3427"
         style="stroke:#ffffff;stroke-width:7;stroke-miterlimit:4;stroke-dasharray:none;stroke-opacity:1"
         transform="matrix(0.7270767,0,0,0.7270767,21.283174,78.615271)">
        <path
           style="fill:none;stroke:#ffffff;stroke-width:7;stroke-linecap:butt;stroke-linejoin:miter;stroke-miterlimit:4;stroke-dasharray:none;stroke-opacity:1"
           d="M 36.320991,84.797571 78.373509,103.06653 52.03254,168.98961"
           id="path3418" />
        <path
           style="fill:none;stroke:#ffffff;stroke-width:7;stroke-linecap:butt;stroke-linejoin:miter;stroke-miterlimit:4;stroke-dasharray:none;stroke-opacity:1"
           d="M 111.53724,43.838233 78.373509,103.06653 136.95906,180.06381"
           id="path3420" />
        <path
           style="fill:none;stroke:#ffffff;stroke-width:7;stroke-linecap:butt;stroke-linejoin:miter;stroke-miterlimit:4;stroke-dasharray:none;stroke-opacity:1"
           d="M 78.373509,103.06653 173.73499,102.716"
           id="path3422" />
      </g>
      <path
         style="fill:none;stroke:#ffffff;stroke-width:5.08954;stroke-linecap:butt;stroke-linejoin:round;stroke-miterlimit:4;stroke-dasharray:none;stroke-opacity:1"
         d="m 102.3793,110.48903 45.22254,42.80865 -26.73892,56.23779 -61.748099,-8.05179 -11.423501,-61.21407 z"
         id="path3386" />
      <path
         d="m 339.90052,334.55726 c -8.25996,0 -14.9795,6.71987 -14.9795,14.9795 0,8.25963 6.71954,14.9795 14.9795,14.9795 8.25997,0 14.9795,-6.71987 14.9795,-14.9795 0,-8.25963 -6.71986,-14.9795 -14.9795,-14.9795 z m 0,24.41103 c -5.20042,0 -9.43153,-4.23077 -9.43153,-9.43153 0,-5.20076 4.23077,-9.43153 9.43153,-9.43153 5.20076,0 9.43154,4.23077 9.43154,9.43153 0,5.20076 -4.23145,9.43153 -9.43154,9.43153 z"
         id="path2861"
         style="fill:#ffffff;fill-opacity:1;stroke-width:0.333211" />
      <path
         d="m 388.98516,360.62835 -8.48289,-7.65818 v -6.86682 l 8.48255,-7.65752 c 0.87102,-0.7867 1.15325,-2.03658 0.70375,-3.12085 l -4.53334,-10.94465 c -0.44916,-1.08393 -1.52876,-1.76768 -2.70401,-1.7087 l -11.41314,0.58279 -4.85522,-4.85522 0.5828,-11.41281 c 0.06,-1.17224 -0.62445,-2.25551 -1.70871,-2.70434 l -10.94498,-4.53367 c -1.08394,-0.44983 -2.33415,-0.16694 -3.12052,0.70341 l -7.65852,8.48289 h -6.86615 l -7.65785,-8.48289 c -0.78671,-0.87068 -2.03658,-1.15225 -3.12052,-0.70341 l -10.94465,4.53334 c -1.0846,0.44916 -1.76868,1.53243 -1.7087,2.70434 l 0.58311,11.41281 -4.85554,4.85521 -11.41314,-0.58279 c -1.16824,-0.0627 -2.25518,0.62444 -2.70401,1.70871 l -4.534,10.94464 c -0.44917,1.08461 -0.16727,2.33415 0.70374,3.12086 l 8.48255,7.65752 v 6.86682 l -8.48188,7.65818 c -0.87102,0.78671 -1.15325,2.03658 -0.70374,3.12086 l 4.53333,10.94464 c 0.44917,1.0846 1.53377,1.77302 2.70401,1.70871 l 11.41314,-0.58279 4.85554,4.85521 -0.58311,11.41281 c -0.06,1.17224 0.62444,2.25551 1.7087,2.70434 l 10.94465,4.53367 c 1.0846,0.4505 2.33415,0.16727 3.12052,-0.70341 l 7.65852,-8.48288 h 6.86615 l 7.65851,8.48288 c 0.53747,0.59478 1.29053,0.915 2.05991,0.915 0.35688,0 0.71708,-0.0693 1.06061,-0.21126 l 10.94465,-4.53366 c 1.0846,-0.44917 1.76868,-1.53244 1.70871,-2.70435 l -0.58279,-11.4128 4.85522,-4.85522 11.41314,0.58279 c 1.16824,0.0593 2.25517,-0.62444 2.70401,-1.70871 l 4.53333,-10.94464 c 0.44917,-1.08461 0.16727,-2.33415 -0.70374,-3.12086 z m -8.20632,10.13361 -10.68907,-0.54613 c -0.78338,-0.0423 -1.54811,0.25457 -2.1029,0.80904 l -6.59891,6.59891 c -0.55513,0.55512 -0.84869,1.31885 -0.80904,2.10289 l 0.5458,10.68907 -7.32731,3.03522 -7.17235,-7.94475 c -0.52581,-0.58212 -1.2742,-0.91499 -2.05892,-0.91499 h -9.3319 c -0.78472,0 -1.53311,0.33254 -2.05892,0.91499 l -7.17236,7.94475 -7.3273,-3.03522 0.54612,-10.68907 c 0.04,-0.78404 -0.25423,-1.5481 -0.80937,-2.10289 l -6.59857,-6.59891 c -0.5548,-0.5548 -1.31785,-0.84969 -2.10289,-0.80904 l -10.68908,0.54613 -3.03521,-7.32731 7.94441,-7.17236 c 0.58245,-0.52647 0.91499,-1.2742 0.91499,-2.05891 v -9.33257 c 0,-0.78472 -0.33254,-1.53311 -0.91499,-2.05892 l -7.94441,-7.17236 3.03521,-7.3273 10.68908,0.54613 c 0.78437,0.0413 1.54809,-0.25424 2.10289,-0.80904 l 6.59857,-6.59858 c 0.55514,-0.55513 0.84936,-1.31885 0.80937,-2.10356 l -0.54612,-10.68907 7.3273,-3.03522 7.17236,7.94442 c 0.52581,0.58212 1.2742,0.91499 2.05892,0.91499 h 9.3319 c 0.78472,0 1.53311,-0.33254 2.05892,-0.91499 l 7.17235,-7.94442 7.32731,3.03522 -0.5458,10.68907 c -0.04,0.78405 0.25358,1.54777 0.80904,2.10356 l 6.59891,6.59858 c 0.55513,0.5548 1.31919,0.85436 2.1029,0.80904 l 10.68907,-0.54613 3.03522,7.3273 -7.94475,7.17236 c -0.58245,0.52648 -0.91499,1.2742 -0.91499,2.05892 v 9.33257 c 0,0.78471 0.33254,1.53311 0.91499,2.05891 l 7.94475,7.17236 z"
         id="path2863"
         style="fill:#ffffff;fill-opacity:1;stroke-width:0.333211" />
      <path
         d="m 339.90052,323.31373 c -14.45936,0 -26.22303,11.764 -26.22303,26.22303 0,14.45936 11.76367,26.22303 26.22303,26.22303 14.45936,0 26.22304,-11.764 26.22304,-26.22303 -3.4e-4,-14.45936 -11.76401,-26.22303 -26.22304,-26.22303 z m 0,46.89811 c -11.40048,0 -20.67507,-9.2746 -20.67507,-20.67508 0,-11.40048 9.27459,-20.67508 20.67507,-20.67508 11.40048,0 20.67508,9.2746 20.67508,20.67508 0,11.40048 -9.27527,20.67508 -20.67508,20.67508 z"
         id="path2865"
         style="fill:#39cac4;fill-opacity:1;stroke-width:0.333333;stroke-miterlimit:4;stroke-dasharray:none" />
      <g
         id="g2873"
         transform="matrix(0.39985312,0,0,0.39985312,325.82289,277.04402)" />
      <g
         id="g2875"
         transform="matrix(0.39985312,0,0,0.39985312,325.82289,277.04402)" />
      <g
         id="g2877"
         transform="matrix(0.39985312,0,0,0.39985312,325.82289,277.04402)" />
      <g
         id="g2879"
         transform="matrix(0.39985312,0,0,0.39985312,325.82289,277.04402)" />
      <g
         id="g2881"
         transform="matrix(0.39985312,0,0,0.39985312,325.82289,277.04402)" />
      <g
         id="g2883"
         transform="matrix(0.39985312,0,0,0.39985312,325.82289,277.04402)" />
      <g
         id="g2885"
         transform="matrix(0.39985312,0,0,0.39985312,325.82289,277.04402)" />
      <g
         id="g2887"
         transform="matrix(0.39985312,0,0,0.39985312,325.82289,277.04402)" />
      <g
         id="g2889"
         transform="matrix(0.39985312,0,0,0.39985312,325.82289,277.04402)" />
      <g
         id="g2891"
         transform="matrix(0.39985312,0,0,0.39985312,325.82289,277.04402)" />
      <g
         id="g2893"
         transform="matrix(0.39985312,0,0,0.39985312,325.82289,277.04402)" />
      <g
         id="g2895"
         transform="matrix(0.39985312,0,0,0.39985312,325.82289,277.04402)" />
      <g
         id="g2897"
         transform="matrix(0.39985312,0,0,0.39985312,325.82289,277.04402)" />
      <g
         id="g2899"
         transform="matrix(0.39985312,0,0,0.39985312,325.82289,277.04402)" />
      <g
         id="g2901"
         transform="matrix(0.39985312,0,0,0.39985312,325.82289,277.04402)" />
      <circle
         style="fill:none;fill-opacity:1;stroke:#ffffff;stroke-width:4.77273;stroke-miterlimit:4;stroke-dasharray:none;stroke-opacity:1"
         cx="402.83975"
         cy="165.91345"
         r="50.113636"
         id="circle1472" />
      <g
         id="g1490"
         style="fill:#ff7226;fill-opacity:0;stroke:#39cac4;stroke-width:24.381;stroke-miterlimit:4;stroke-dasharray:none;stroke-opacity:1"
         transform="matrix(0.21142542,0,0,0.21142542,348.80702,112.48331)">
        <path
           style="fill:#ff7226;fill-opacity:0;stroke:#39cac4;stroke-width:24.381;stroke-miterlimit:4;stroke-dasharray:none;stroke-opacity:1"
           d="m 168.716,395.899 c -4.673,0 -9.386,-1.449 -13.422,-4.455 -13.212,-9.837 -24.899,-21.524 -34.737,-34.736 -7.423,-9.969 -5.359,-24.069 4.61,-31.491 9.968,-7.425 24.067,-5.36 31.492,4.61 7.227,9.704 15.811,18.289 25.514,25.514 9.97,7.423 12.034,21.522 4.611,31.492 -4.416,5.933 -11.199,9.066 -18.068,9.066 z"
           id="path1484" />
        <path
           style="fill:#ff7226;fill-opacity:0;stroke:#39cac4;stroke-width:24.381;stroke-miterlimit:4;stroke-dasharray:none;stroke-opacity:1"
           d="m 420.798,261.641 c 2.337,4.048 3.438,8.853 2.854,13.852 -1.914,16.36 -6.191,32.325 -12.715,47.451 -4.922,11.414 -18.164,16.675 -29.578,11.752 -11.414,-4.92 -16.675,-18.163 -11.754,-29.578 4.791,-11.111 7.933,-22.837 9.339,-34.853 1.444,-12.345 12.621,-21.183 24.968,-19.74 7.347,0.859 13.451,5.168 16.886,11.116 z"
           id="path1486" />
        <path
           style="fill:#ff7226;fill-opacity:0;stroke:#39cac4;stroke-width:24.381;stroke-miterlimit:4;stroke-dasharray:none;stroke-opacity:1"
           d="m 343.284,116.101 c 4.673,0 9.386,1.449 13.422,4.455 13.212,9.837 24.899,21.524 34.737,34.736 7.423,9.969 5.359,24.069 -4.61,31.491 -9.968,7.425 -24.067,5.36 -31.492,-4.61 -7.227,-9.704 -15.811,-18.289 -25.514,-25.514 -9.97,-7.423 -12.034,-21.522 -4.611,-31.492 4.416,-5.933 11.2,-9.066 18.068,-9.066 z"
           id="path1488" />
      </g>
      <g
         id="g1480"
         transform="matrix(0.21142542,0,0,0.21142542,348.80702,112.48331)"
         style="fill:#ffffff;fill-opacity:1;stroke:#ffffff;stroke-opacity:1">
        <circle
           style="fill:#ffffff;fill-opacity:1;stroke:#ffffff;stroke-opacity:1"
           cx="221.679"
           cy="425.354"
           r="8.4399996"
           id="circle1476" />
        <circle
           style="fill:#ffffff;fill-opacity:1;stroke:#ffffff;stroke-opacity:1"
           cx="202.549"
           cy="92.834999"
           r="8.4399996"
           id="circle1478" />
      </g>
      <circle
         style="fill-opacity:1;stroke:#ffffff;stroke-width:5.15476;stroke-miterlimit:4;stroke-dasharray:none;stroke-opacity:1"
         cx="402.93188"
         cy="136.00803"
         r="4.7581286"
         id="circle1482" />
      <path
         style="fill:#ffffff;fill-opacity:1;stroke:#ffffff;stroke-width:0.211345;stroke-miterlimit:4;stroke-dasharray:none;stroke-opacity:1"
         d="m 416.61284,190.30753 c -4.13865,2.39481 -8.86929,3.6604 -13.68092,3.6604 -0.98545,0 -1.78442,0.79877 -1.78442,1.78444 0,0.98567 0.79897,1.78443 1.78442,1.78443 5.43829,0 10.78694,-1.43177 15.4681,-4.14034 0.8531,-0.49348 1.14467,-1.58507 0.65076,-2.43795 -0.49324,-0.8531 -1.58547,-1.14488 -2.43794,-0.65098 z"
         id="path1492" />
      <path
         style="fill:#ffffff;fill-opacity:1;stroke:#ffffff;stroke-width:0.211345;stroke-miterlimit:4;stroke-dasharray:none;stroke-opacity:1"
         d="m 389.25101,142.90891 c 0.85289,-0.49346 1.14445,-1.58506 0.65098,-2.43795 -0.49347,-0.85331 -1.58568,-1.14445 -2.43816,-0.65077 -9.53655,5.51758 -15.46049,15.78206 -15.46049,26.78782 0,0.98566 0.79899,1.78443 1.78444,1.78443 0.98545,0 1.78443,-0.79877 1.78443,-1.78443 -2.1e-4,-9.73615 5.24124,-18.81708 13.6788,-23.6991 z"
         id="path1494" />
      <path
         style="fill:#ffffff;fill-opacity:1;stroke:#ffffff;stroke-width:0.211345;stroke-miterlimit:4;stroke-dasharray:none;stroke-opacity:1"
         d="m 378.53851,139.69144 c -0.69686,-0.69665 -1.82672,-0.69665 -2.52337,0 -4.73254,4.73275 -8.14262,10.63279 -9.86129,17.0633 -0.25457,0.95204 0.311,1.92989 1.26305,2.18466 0.15433,0.0413 0.30931,0.0609 0.46175,0.0609 0.78819,0 1.50957,-0.52645 1.7227,-1.32395 1.55692,-5.82498 4.64734,-11.1713 8.93695,-15.46091 0.69706,-0.69728 0.69706,-1.82693 2.1e-4,-2.52399 z"
         id="path1496" />
      <path
         id="path1498"
         style="fill:#ffffff;fill-opacity:1;stroke:#ffffff;stroke-width:0.211345;stroke-miterlimit:4;stroke-dasharray:none;stroke-opacity:1"
         d="m 387.37037,149.26336 c -0.45665,0 -0.91217,0.1732 -1.26049,0.52152 -4.49364,4.49364 -6.96898,10.4686 -6.96898,16.82342 0,0.98566 0.79856,1.78403 1.78401,1.78403 0.98546,0 1.78403,-0.79837 1.78403,-1.78403 0,-2.06626 0.31,-4.08516 0.9041,-6.00449 l 6.17564,2.5351 a 13.628428,13.628429 0 0 1 1.37124,-3.2942 l -6.18973,-2.54114 c 0.94507,-1.81889 2.17172,-3.50429 3.6627,-4.99568 0.69685,-0.69708 0.69685,-1.82616 0,-2.52301 -0.34843,-0.34832 -0.80586,-0.52152 -1.26252,-0.52152 z m 23.8951,28.21221 a 13.628428,13.628429 0 0 1 -3.08681,1.78805 l 3.28012,5.68432 c -1.05798,0.49326 -2.158,0.89573 -3.29018,1.19808 -0.95205,0.25456 -1.51685,1.23268 -1.26252,2.18472 0.21313,0.79792 0.93342,1.32495 1.72161,1.32495 0.15244,0 0.30697,-0.0192 0.46111,-0.0604 4.01982,-1.07447 7.70828,-3.20592 10.66591,-6.16356 0.69706,-0.69706 0.69706,-1.82657 0,-2.523 -0.69665,-0.69665 -1.82616,-0.69707 -2.52301,0 -0.83049,0.83049 -1.73057,1.58096 -2.68409,2.25118 z" />
      <circle
         style="fill:none;fill-opacity:1;stroke:#ffffff;stroke-width:5.15476;stroke-miterlimit:4;stroke-dasharray:none;stroke-opacity:1"
         cx="402.93188"
         cy="166.60828"
         r="14.86955"
         id="circle1504" />
      <g
         id="g1506"
         transform="matrix(0.1957564,0,0,0.1957564,352.72613,115.79979)" />
      <g
         id="g1508"
         transform="matrix(0.1957564,0,0,0.1957564,352.72613,115.79979)" />
      <g
         id="g1510"
         transform="matrix(0.1957564,0,0,0.1957564,352.72613,115.79979)" />
      <g
         id="g1512"
         transform="matrix(0.1957564,0,0,0.1957564,352.72613,115.79979)" />
      <g
         id="g1514"
         transform="matrix(0.1957564,0,0,0.1957564,352.72613,115.79979)" />
      <g
         id="g1516"
         transform="matrix(0.1957564,0,0,0.1957564,352.72613,115.79979)" />
      <g
         id="g1518"
         transform="matrix(0.1957564,0,0,0.1957564,352.72613,115.79979)" />
      <g
         id="g1520"
         transform="matrix(0.1957564,0,0,0.1957564,352.72613,115.79979)" />
      <g
         id="g1522"
         transform="matrix(0.1957564,0,0,0.1957564,352.72613,115.79979)" />
      <g
         id="g1524"
         transform="matrix(0.1957564,0,0,0.1957564,352.72613,115.79979)" />
      <g
         id="g1526"
         transform="matrix(0.1957564,0,0,0.1957564,352.72613,115.79979)" />
      <g
         id="g1528"
         transform="matrix(0.1957564,0,0,0.1957564,352.72613,115.79979)" />
      <g
         id="g1530"
         transform="matrix(0.1957564,0,0,0.1957564,352.72613,115.79979)" />
      <g
         id="g1532"
         transform="matrix(0.1957564,0,0,0.1957564,352.72613,115.79979)" />
      <g
         id="g1534"
         transform="matrix(0.1957564,0,0,0.1957564,352.72613,115.79979)" />
      <g
         id="g80">
        <path
           sodipodi:type="star"
           style="fill:#39cac4;fill-opacity:1;stroke-width:0.100853;stroke-miterlimit:4;stroke-dasharray:none"
           id="path2843"
           sodipodi:sides="5"
           sodipodi:cx="251.93484"
           sodipodi:cy="216.39114"
           sodipodi:r1="57.833416"
           sodipodi:r2="46.788223"
           sodipodi:arg1="0.9526521"
           sodipodi:arg2="1.5809706"
           inkscape:flatsided="true"
           inkscape:rounded="0"
           inkscape:randomized="0"
           inkscape:transform-center-x="-0.18183253"
           inkscape:transform-center-y="-5.3493713"
           d="m 285.45069,263.52279 -67.98374,-0.69171 -20.35028,-64.87013 55.40658,-39.40023 54.59342,40.51945 z" />
        <path
           sodipodi:type="star"
           style="fill:#39cac4;fill-opacity:0;stroke:#ffffff;stroke-width:3;stroke-miterlimit:4;stroke-dasharray:none;stroke-opacity:1"
           id="path2855"
           sodipodi:sides="5"
           sodipodi:cx="251.18365"
           sodipodi:cy="215.81238"
           sodipodi:r1="82.25898"
           sodipodi:r2="66.548912"
           sodipodi:arg1="0.95502309"
           sodipodi:arg2="1.5833416"
           inkscape:flatsided="true"
           inkscape:rounded="0"
           inkscape:randomized="0"
           inkscape:transform-center-x="-0.31888253"
           inkscape:transform-center-y="-7.5511398"
           d="m 298.69561,282.96261 -96.69362,-1.21311 -28.72623,-92.33597 78.93983,-55.85366 77.51373,57.81651 z" />
      </g>
    </g>
  </g>
</svg>
