<svg xmlns="http://www.w3.org/2000/svg" width="200" height="200" viewBox="0 0 200 200">
  <g style="background-color:white;">
    <path d="m 40.597948,53.652817 c 0,5.45822 0,10.916442 0,16.374661 17.362592,0 34.725183,0 52.087774,0 -10.112277,24.82784 -20.224554,49.655672 -30.336831,74.483512 -6.236435,-5.15711 -12.47287,-10.31423 -18.709304,-15.47135 -3.451477,4.17371 -6.902954,8.34741 -10.35443,12.5211 11.921294,9.85786 23.842589,19.71572 35.763883,29.57358 13.726928,-33.70229 27.453854,-67.40456 41.18078,-101.106842 17.72646,0 35.45291,0 53.17937,0 0,-5.458219 0,-10.916441 0,-16.374661 -40.93708,0 -81.874164,0 -122.811242,0 z" />
    <path fill="#39cac4" d="m 134.75332,98.454456 c -11.93003,-0.120132 -23.55874,6.909044 -28.99735,17.527964 -5.63936,10.48622 -4.83696,24.01674 2.00191,33.76309 6.6422,9.88135 18.98314,15.48622 30.79444,13.98687 10.45484,-1.14548 20.11265,-7.70334 25.03372,-16.99844 -5.11396,-2.08318 -10.22792,-4.16637 -15.34188,-6.24955 -3.75783,5.62077 -11.20564,8.38493 -17.71885,6.53937 -6.77034,-1.69942 -11.93973,-8.14415 -12.13214,-15.12141 -0.40919,-7.04423 4.30394,-13.97392 11.01007,-16.17459 6.63353,-2.40873 14.62179,0.12704 18.6488,5.92246 0.50588,0.92714 0.98427,1.68382 2.01338,0.81709 4.63564,-2.01804 9.27128,-4.03608 13.9069,-6.05412 -5.28087,-10.69824 -16.80429,-17.898731 -28.73479,-17.955149 -0.16139,-0.0024 -0.32281,-0.0036 -0.48421,-0.0036 z" />
  </g>
  <g>
    <path d="m 130.03906,35.265625 c -6.57096,0.37252 -13.07243,3.355468 -17.28515,8.46875 0.88932,0.650391 1.77865,1.300781 2.66797,1.951172 4.43368,-5.340543 11.71756,-7.687776 18.51336,-7.130448 7.67453,0.605406 14.78248,4.099282 21.12921,8.26912 0.60807,-0.91862 1.21615,-1.83724 1.82422,-2.75586 -7.38373,-4.862754 -15.85747,-8.764558 -24.84934,-8.859205 -0.66714,-0.004 -1.33444,0.01439 -2.00027,0.05647 z" />
    <path style="fill:white;stroke:black;stroke-width:4,stroke-linejoin:round;stroke-miterlimit:4;stroke-dasharray:none;paint-rrder:stroke fill markers;" d="m 153.86903,55.368874 c -0.10519,2.366721 -2.40555,3.806331 -4.30783,4.756214 -5.76944,2.601433 -12.276,3.051559 -18.52206,2.704715 -4.72103,-0.402854 -9.66795,-1.168747 -13.69218,-3.840952 -1.57182,-1.014048 -3.00432,-3.044071 -2.06513,-4.940148 1.38193,-2.600204 4.39224,-3.709345 7.0221,-4.603408 7.07564,-2.055388 14.68311,-2.140198 21.87419,-0.631329 3.21502,0.807417 6.74549,1.805406 8.93804,4.466841 0.44661,0.601486 0.75658,1.329592 0.75287,2.088067 z" />
    <path fill="black" d="m 127.75874,54.998494 c 0.0205,1.2573 -1.00865,2.3469 -2.15068,2.4722 -1.20933,0.2018 -2.54385,-0.659 -2.79539,-1.9736 -0.26724,-1.1948 0.49672,-2.4748 1.57136,-2.8371 1.20571,-0.4801 2.74703,0.1524 3.2175,1.4672 0.10312,0.2763 0.15748,0.5737 0.15721,0.8713 z" />
    <path d="m 67.189453,34.892578 c -6.570618,0.37531 -13.07235,3.357143 -17.285156,8.470703 0.889323,0.650391 1.778646,1.300781 2.667969,1.951172 4.433686,-5.34054 11.717567,-7.687777 18.513365,-7.130448 7.674528,0.605406 14.782484,4.099283 21.129213,8.26912 0.608073,-0.91862 1.216145,-1.837239 1.824218,-2.755859 -7.383909,-4.862683 -15.857256,-8.765788 -24.849343,-8.861111 -0.667137,-0.004 -1.334436,0.01434 -2.000266,0.05642 z" />
    <path style="fill:white;stroke:black;stroke-width:4,stroke-linejoin:round;stroke-miterlimit:4;stroke-dasharray:none;paint-rrder:stroke fill markers;" d="m 91.019508,54.997169 c -0.105185,2.366722 -2.405551,3.806332 -4.307834,4.756215 -5.769431,2.601433 -12.275998,3.051559 -18.52205,2.704715 -4.721032,-0.402854 -9.66795,-1.168747 -13.692187,-3.840952 -1.571817,-1.014048 -3.004316,-3.044071 -2.065128,-4.940148 1.381929,-2.600204 4.392238,-3.709345 7.022107,-4.603408 7.075633,-2.055388 14.6831,-2.140198 21.874179,-0.631329 3.215024,0.807417 6.745497,1.805406 8.938038,4.466841 0.446612,0.601486 0.756586,1.329591 0.752875,2.088066 z" />
    <path fill="black" d="m 64.199753,54.998493 c 0.01817,1.240801 -0.970846,2.309985 -2.094058,2.463637 -1.211091,0.228208 -2.55671,-0.595823 -2.839702,-1.909945 -0.289738,-1.167921 0.407551,-2.434405 1.446127,-2.845906 1.189665,-0.542318 2.744057,0.01649 3.283233,1.303159 0.133651,0.308771 0.204696,0.648627 0.2044,0.989055 z" style="strokeWidth: 1.33" />
  </g>
</svg>
